<?xml version="1.0" encoding="UTF-8" standalone="no"?>
<!DOCTYPE svg PUBLIC "-//W3C//DTD SVG 1.1//EN" "http://www.w3.org/Graphics/SVG/1.1/DTD/svg11.dtd">
<!-- Created with Vectornator (http://vectornator.io/) -->
<svg height="100%" stroke-miterlimit="10" style="fill-rule:nonzero;clip-rule:evenodd;stroke-linecap:round;stroke-linejoin:round;" version="1.1" viewBox="0 0 3000 2000" width="100%" xml:space="preserve" xmlns="http://www.w3.org/2000/svg" xmlns:vectornator="http://vectornator.io" xmlns:xlink="http://www.w3.org/1999/xlink">
<defs/>
<g id="Layer" vectornator:layerName="Layer">
<path d="M0 0L3000 0L3000 2000L0 2000L0 0Z" fill="#fafafa" fill-rule="nonzero" opacity="1" stroke="none"/>
<path d="M0 8.52651e-14L1500 8.52651e-14L1700 1000L1500 2000L0 2000L0 8.52651e-14Z" fill="#5064ff" fill-rule="nonzero" opacity="1" stroke="none"/>
<path d="M1900 9.23706e-14L1700 9.23706e-14L1900 1000L1700 2000L1900 2000L2100 1000L1900 9.23706e-14Z" fill="#5064ff" fill-rule="nonzero" opacity="1" stroke="none"/>
<path d="M500 1000C500 861.929 611.929 750 750 750C888.071 750 1000 861.929 1000 1000C1000 1138.07 888.071 1250 750 1250C611.929 1250 500 1138.07 500 1000Z" fill="#fafafa" fill-rule="nonzero" opacity="1" stroke="none"/>
</g>
</svg>